<?xml version="1.0" encoding="UTF-8"?>
<svg width="42px" height="52px" viewBox="0 0 42 52" version="1.1" xmlns="http://www.w3.org/2000/svg" xmlns:xlink="http://www.w3.org/1999/xlink">
    <title>Logo-Mark-Bulldog-K</title>
    <g id="📱-Mobile" stroke="none" stroke-width="1" fill="none" fill-rule="evenodd">
        <g id="005-Mobile-Side-Navigation" transform="translate(-31.000000, -56.000000)" fill="#000000">
            <g id="Logo-Mark-Bulldog-K" transform="translate(31.000000, 56.000000)">
                <path d="M41.9648587,26.3249589 C41.8692336,27.1230221 41.8111888,27.2778537 41.5481268,27.4407763 C41.4231073,27.5191115 41.2214389,27.7162368 41.099396,27.8787916 C40.9773531,28.0442886 40.7942888,28.233323 40.69085,28.303935 C40.5862949,28.3749148 40.3827661,28.5459284 40.2331891,28.6823714 C39.9228728,28.9707039 39.6836241,29.0604401 39.2482882,29.0604401 C39.07527,29.0604401 38.86616,29.0865518 38.780209,29.1211223 C38.6931419,29.1520151 38.3418965,29.4329922 38.0055344,29.7430232 C37.340996,30.3572009 36.9112413,30.5852189 36.4093027,30.5881611 C36.0000125,30.5907355 35.7793679,30.6223638 35.8857833,31.4564686 C35.9728505,32.1342707 35.9728505,32.223639 35.8857833,32.5178559 C35.8351802,32.6932827 35.7901583,32.9113709 35.7901583,32.9952227 C35.7901583,33.0820167 35.7369506,33.4233083 35.6681154,33.7612899 C35.5453283,34.3578145 35.5430959,34.3964305 35.6368605,35.3706561 C35.8061578,37.1745732 35.7477409,37.7413084 35.2193845,39.253583 C34.876697,40.235164 34.468151,41.8180507 34.331969,42.6893003 C34.2791334,43.0441994 34.1831362,43.4851569 34.1224869,43.6716169 C34.0529075,43.8790397 34.0056531,44.1673723 34.0056531,44.4351096 C34.0056531,44.8109716 34.032443,44.9025466 34.1831362,45.1338746 C34.404525,45.4773728 34.6992139,45.703552 35.1181782,45.8396273 C35.4746328,45.9554752 35.8839229,46.2202704 36.1410316,46.4960987 C36.5655771,46.8973369 37.1973723,47.1312393 37.1664895,47.790285 C36.9350545,48.5331826 36.1466128,48.5589266 35.1181782,48.6692579 C34.3111324,48.7538452 33.1740499,48.8608666 32.6672743,48.1102459 C32.3930498,47.9708606 31.8836696,47.5508661 31.7828354,47.3831625 C31.7348368,47.3044595 31.5461913,47.1025531 31.5272151,46.9315396 C31.5037739,46.7631005 31.4163347,46.4880077 31.3315,46.3225107 C31.2198754,46.1044225 31.1875043,45.9628306 31.2116896,45.8219743 C31.2299216,45.7138496 31.2198754,45.6086671 31.1875043,45.5902785 C31.1104833,45.542836 31.1212737,45.1360812 31.2035038,44.7293264 C31.2701064,44.416721 31.2675019,44.3744274 31.1558773,44.2280545 C31.0922513,44.1390539 30.9754175,43.9551683 30.8980245,43.817622 C30.7707724,43.5932816 30.7651912,43.5484135 30.8291893,43.2615521 C30.8637929,43.0886997 30.9248144,42.7816109 30.959418,42.5716136 C30.991045,42.3616163 31.0494618,42.0309901 31.0892746,41.836807 C31.1238782,41.6709422 31.1510402,41.1770257 31.1666677,40.4951781 C30.7815628,40.1428535 30.5315237,38.8019601 30.4046438,37.8990822 C30.0619563,38.114596 29.6102488,38.4080773 29.5090425,38.4529454 C29.2169581,38.5783553 28.3961453,38.8093156 28.2476846,38.8093156 C28.1576407,38.8093156 28.0039709,38.851977 27.9053691,38.9045683 C27.3684549,39.1855454 26.688289,39.3374348 25.4373494,39.4481339 C24.9067605,39.4974152 23.8656751,39.3032321 23.1032792,39.1197143 C22.7449642,39.8284092 22.1816321,40.5503438 22.1816321,40.5503438 C22.3546502,40.9670284 21.9985678,42.4579723 21.772714,43.3071557 C21.8151314,43.6057858 21.8735482,43.8025434 21.976987,44.0335036 C22.0967974,44.3071253 22.149261,44.524478 22.149261,44.7403596 C22.1529818,44.913212 22.1816321,45.1625608 22.2132591,45.2909129 C22.2478627,45.4196327 22.271676,45.9260535 22.2694435,46.4177634 C22.267211,46.9080023 22.2910242,47.3541086 22.3222791,47.4147908 C22.3524178,47.4721631 22.4100905,47.679586 22.4528799,47.8715625 C22.5302729,48.2308748 22.6999423,48.5537778 22.9790038,48.8744742 C23.0604898,48.9719335 23.4939653,49.3963413 23.6234498,49.6615042 L23.8574893,50.1447554 L23.7272606,50.3966786 C23.6558209,50.5412126 23.597404,50.6960443 23.5947995,50.7405446 C23.5947995,50.7854126 23.5415917,50.9089837 23.4727566,51.0189473 C23.4061539,51.1289108 23.3313654,51.3311849 23.3105288,51.4621114 C23.2729486,51.6643855 23.2286708,51.7228611 23.0284907,51.8324569 C22.7713821,51.9714743 22.4439499,52.0270077 22.1101924,51.9876562 C21.3556101,51.9034367 20.5883771,51.6724764 20.4819617,51.5018307 C20.4577763,51.464318 20.378895,51.464318 20.2695029,51.5018307 C20.129228,51.5522153 20.0656019,51.5411822 19.8899792,51.4253343 C19.7727734,51.3517801 19.6537072,51.2289445 19.6187315,51.1579647 C19.5874766,51.0814683 19.4888749,50.9921 19.4092493,50.9560584 C19.0059125,50.150272 19.0297257,49.6195783 19.4062727,49.0601985 L19.3910173,48.4519052 C19.3802269,48.1050971 19.4010635,47.7535079 19.4412484,47.6380278 C19.512316,47.422514 19.4378996,47.0161269 19.2816252,46.7660426 C19.2418124,46.702786 19.1089792,46.6509303 19.0613527,45.8473505 C18.9690764,44.2537985 18.3499319,43.0655301 18.2513302,42.8606816 C18.1925413,42.7470404 18.1289153,42.540353 18.105102,42.3983934 C18.0842654,42.2568016 18.0254765,42.0548952 17.97785,41.954126 C17.6716265,41.3138365 17.4174945,39.672842 17.5339562,39.0847761 C17.5715365,38.8968451 17.605768,38.4260981 17.6113492,38.0329508 C17.6165584,37.3551488 17.6113492,37.3191072 17.4867018,37.2628382 C17.4148899,37.2293711 17.3557289,37.1793542 17.3557289,37.1536102 C17.3557289,37.0951346 16.9605779,36.8958027 16.6818885,36.8380626 C16.6368665,36.8281328 16.6018908,36.8200419 16.575473,36.8170997 C16.4954754,36.8148931 16.4854292,36.8652777 16.4586393,37.0480599 C16.4296169,37.2687226 15.7870313,38.7938692 15.8294486,38.5971117 C15.8078679,38.6228556 15.7442419,38.7729062 15.7096383,38.8751466 C15.6698255,38.996511 15.5347597,39.2274713 15.4067635,39.3848773 C15.2791394,39.5419155 15.1578407,39.746764 15.1332833,39.8357646 C15.1120746,39.9280751 15.0134729,40.1697007 14.9178478,40.3774914 C14.7481784,40.7493079 14.7459459,40.7706387 14.7719917,41.5639209 C14.7987816,42.3509509 14.8039907,42.3873603 15.0216587,42.8474419 C15.1466782,43.1096627 15.2981156,43.3615858 15.359137,43.4171193 C15.4201585,43.4719172 15.4685291,43.5609178 15.4685291,43.6138768 C15.4685291,43.6973608 15.985351,44.0860948 16.1021847,44.089037 C16.1289746,44.089037 16.2677612,44.1673723 16.4102686,44.2648316 C16.6018908,44.3939192 17.2262444,44.8819514 17.4573073,44.9161541 C18.0176627,45.3828556 18.4481616,45.6454442 18.1374731,46.6509303 C17.4573073,47.0757059 17.2236398,46.8318736 16.4404072,46.9024857 C15.6032228,47.0576851 14.9602652,46.6689511 14.2224266,46.3125809 C14.0523851,46.1290631 13.8529492,45.7373869 13.8529492,45.5902785 C13.8529492,45.5192987 13.7230926,45.2677433 13.5642136,45.0279566 C13.3699868,44.7374174 13.2605947,44.5060894 13.2315723,44.3166873 C13.2107357,44.1644301 13.1657138,44.0257804 13.1333427,44.0073918 C13.1020878,43.9890033 13.0775304,43.8790397 13.0775304,43.7712828 C13.0775304,43.6477117 13.0243226,43.5138431 12.9316742,43.403144 C12.8494441,43.3071557 12.7794927,43.186159 12.7794927,43.1357744 C12.7794927,43.0857575 12.6552173,42.8025738 12.5067566,42.5087247 C12.3553192,42.2141401 12.1722549,41.8103275 12.100071,41.605479 C12.0286313,41.401366 11.91403,41.1619471 11.8429624,41.0700043 C11.691525,40.8787634 11.6651072,40.4528845 11.7949638,40.2090522 C11.972819,39.8751161 12.1034197,39.6522468 12.2835074,39.366121 C12.3873183,39.2057728 12.4829434,38.9935689 12.50378,38.8968451 C12.5197795,38.7997535 12.5781963,38.6022604 12.6343807,38.4547842 C12.6875884,38.310618 12.7590282,37.9229873 12.7910272,37.5894189 C12.8382816,37.0899858 12.8338167,36.9303732 12.7564236,36.670359 C12.7564236,36.670359 12.7564236,36.6681524 12.753819,36.6648425 C12.7486099,36.657487 12.7378195,36.6416729 12.7247966,36.6199744 C11.6539447,35.9090729 11.2346083,34.2706528 11.0857755,33.4490522 C10.9849413,33.4358125 10.8896883,33.4104363 10.833876,33.383589 C10.7460647,33.3390887 10.525048,33.2842908 10.3449603,33.2625923 C10.0398531,33.2265507 10.0026449,33.2342739 9.7924186,33.4074941 C9.47912558,33.6645661 8.79151809,34.6729944 8.38446041,35.4728964 C8.12995634,35.966813 7.68383005,36.4103449 7.31435265,36.8200419 C7.14765992,37.0009852 6.84999434,37.3452189 6.65576755,37.5758114 C6.45968035,37.8067716 6.20666461,38.0870132 6.09504001,38.2006544 C5.9837875,38.3135602 5.76388706,38.5687933 5.61468218,38.7648153 C5.4636169,38.9645149 5.23218191,39.2374011 5.09934865,39.3690631 C4.88465735,39.589358 4.22607225,40.1722751 4.06644909,40.4767896 C4.03184546,40.5422528 4.01361345,40.9092884 3.90980257,41.216745 C3.80301505,41.5205239 3.66013557,41.8629187 3.5913004,41.9783989 C3.32823845,42.4031744 3.26200786,42.6422256 3.2322413,43.2692753 C3.21959051,43.6079925 3.19019603,44.0702807 3.16638279,44.2986665 C3.14256954,44.5454409 3.15819698,44.8709183 3.20135849,45.1176927 C3.2404271,45.3438719 3.28544902,45.6274234 3.30144855,45.7498912 C3.31782015,45.8705201 3.35428419,45.9871035 3.38665532,46.0051243 C3.45772297,46.0496246 3.58088211,46.9767754 3.50572155,47.2415706 C3.21400928,48.2496311 2.65886297,48.1944654 2.12008827,48.0789853 C1.04960843,47.8561161 0.39920914,47.8079381 0.0434987715,47.2467194 C-0.13770515,46.9657423 0.305816564,46.0573478 0.305816564,45.9106071 C0.305816564,45.6689815 0.606086718,44.333237 0.71771131,44.0805783 C0.908589364,43.6558027 0.985610332,41.936473 0.852777067,41.1564305 C0.71771131,40.3690327 0.868776592,39.4580637 1.16123302,39.2955089 C1.32011203,39.2087149 1.70596104,38.607777 1.91283861,38.119377 C2.09032172,37.7023246 2.11227455,37.5941999 2.14948275,36.843947 C2.16771477,36.3893819 2.2309687,35.8410353 2.28715308,35.6174305 C2.37198777,35.2735645 2.42817215,34.819735 2.45496205,34.2261525 C2.45682246,34.1470817 2.44119502,33.8223399 2.42259092,33.5071601 C2.31915213,31.4697084 2.2949668,29.5304515 3.49269868,27.7500718 C3.54330183,27.6555546 3.58869583,27.5614052 3.63148526,27.4771856 C3.63148526,27.4771856 3.51167486,27.3745775 3.41307314,27.1678902 C3.2322413,26.7898215 3.12098879,26.0649447 3.89640762,24.9649415 C3.96003364,24.891755 4.02663631,24.8101098 4.10923851,24.7027207 C4.15984166,24.6420385 4.21788645,24.5659099 4.28411704,24.4794837 C4.62159539,24.0359517 5.49822053,23.3566786 5.86695376,23.0933545 C6.93222446,22.3372172 7.6228086,22.0672732 8.89756145,21.5976296 C9.63316752,21.3556362 10.3393791,21.3214335 11.0887522,21.1846227 C11.2848394,21.1846227 11.9277971,21.1610853 12.5141982,21.1820483 C14.7027844,21.2533958 16.1665549,22.0591823 16.3470147,22.1272199 C16.9628103,22.3662711 17.5983264,22.5891404 18.0704984,22.7362488 C18.2167266,22.7833235 18.4983927,22.9333741 18.7208977,22.9859654 C21.2737521,23.5685147 21.4143991,23.1930205 22.8647746,22.7998732 C23.0500715,22.7498563 23.161696,22.6575458 23.4143397,22.6553392 C23.8757214,22.652397 24.4844475,22.3692133 24.6202574,22.233138 C25.0046181,21.8543338 25.4373494,21.6678738 25.653157,21.4317648 C26.3247649,20.6947516 26.1729555,20.4082579 26.3322066,20.0250405 C26.5312704,19.5421571 26.951351,18.8827435 27.1217645,18.5756547 C27.1671585,18.4969517 27.2999918,18.4186165 27.3453858,18.3340291 C27.432453,18.1740487 27.7029566,17.9717746 28.13606,17.7433888 C28.3381005,17.6363674 28.481352,17.6120945 28.9806861,17.6098879 C29.416022,17.6073135 29.6050396,17.5859828 29.6526661,17.5282427 C29.6898743,17.4808002 29.9242859,17.3605391 30.1754413,17.2575632 C30.4310616,17.1531162 30.7253784,17.0317518 30.832166,16.9850448 C30.9404418,16.9401768 31.1238782,16.9037674 31.2414561,16.9037674 C31.3605224,16.9037674 31.5409821,16.8537506 31.6444209,16.7934361 C31.7426506,16.7327539 31.9599464,16.6647162 32.1229183,16.6433855 C32.6698788,16.5757156 33.4661343,16.2579614 33.7582186,15.9924307 C34.1753225,15.6147298 34.5421953,15.4253277 34.9299048,15.3914928 C35.0020887,15.386344 35.0787375,15.3837696 35.1550144,15.3837696 C35.6863474,15.3756786 36.3185147,15.4808612 36.6265986,15.6382672 C36.79664,15.7272678 37.1207234,15.8615042 37.3462051,15.9376328 C37.8276792,16.1005554 38.0371613,16.2737756 38.3024558,16.7537168 C38.4538931,17.0243963 38.5067288,17.2104885 38.5331466,17.5308171 C38.557704,17.7908312 38.5465416,17.9644192 38.5097054,17.9875888 C38.4780785,18.0063451 38.4483119,18.126974 38.4483119,18.2531195 C38.4483119,18.5230634 38.8713691,19.2141053 39.1708951,19.4395489 C39.7126465,19.8488781 39.8942225,19.9169158 40.0664964,20.3821462 C40.2365379,20.846641 40.1457499,20.9330672 40.0158933,21.9484832 L39.914687,22.6943229 C39.9258494,22.7233768 39.941849,22.7469142 39.960081,22.7759681 L40.3693711,23.153669 C40.8307528,23.5736635 41.2158576,24.0911174 41.4577109,24.6265921 C41.5291507,24.7862047 41.6433798,24.970458 41.7103546,25.0278303 C41.7788177,25.0910869 41.8777915,25.2852701 41.930255,25.4662134 C42.0106247,25.7420417 42.020671,25.8759104 41.9648587,26.3249589" id="Fill-1"></path>
                <polygon id="Fill-3" points="24.71875 3.05469441 22.1493583 4.94523522 23.1372185 8.01666667 20.5626837 6.12054684 17.9822709 8.01666667 18.9701311 4.94523522 16.40625 3.05469441 19.5748235 3.05469441 20.5626837 0 21.5446659 3.05469441"></polygon>
                <polygon id="Fill-5" points="38.71875 5.65469441 36.1493583 7.54560716 37.1372185 10.6166667 34.5626837 8.72054684 31.9822709 10.6166667 32.9704985 7.54560716 30.40625 5.65469441 33.5748235 5.65469441 34.5626837 2.6 35.5446659 5.65469441"></polygon>
                <polygon id="Fill-7" points="10.5 5.65469441 7.93060834 7.54560716 8.91846853 10.6166667 6.34393369 8.72054684 3.76388828 10.6166667 4.75138109 7.54560716 2.1875 5.65469441 5.3560735 5.65469441 6.34393369 2.6 7.32628331 5.65469441"></polygon>
            </g>
        </g>
    </g>
</svg>