<?xml version="1.0" encoding="UTF-8"?>
<svg width="59px" height="74px" viewBox="0 0 59 74" version="1.1" xmlns="http://www.w3.org/2000/svg" xmlns:xlink="http://www.w3.org/1999/xlink">
    <title>Logo-Mark-Bulldog-W</title>
    <g id="🖥-Desktop" stroke="none" stroke-width="1" fill="none" fill-rule="evenodd">
        <g id="001-Desktop-Home" transform="translate(-211.000000, -99.000000)" fill="#FFFFFF">
            <g id="Global-Navigation" transform="translate(211.000000, 99.000000)">
                <g id="Group" transform="translate(0.000000, 0.000000)">
                    <g id="Logo-Mark-Bulldog-K" transform="translate(0.000000, 0.000000)">
                        <path d="M58.9506348,37.1362221 C58.8163043,38.2620378 58.7347652,38.4804564 58.3652258,38.7102889 C58.1896031,38.8207952 57.906307,39.0988769 57.7348658,39.3281905 C57.5634246,39.5616546 57.3062628,39.8283225 57.1609559,39.9279338 C57.014081,40.028064 56.7281714,40.2693102 56.5180514,40.4617884 C56.0821308,40.8685347 55.7460433,40.9951241 55.1345,40.9951241 C54.8914508,40.9951241 54.5977009,41.0319596 54.4769603,41.0807276 C54.3546516,41.1243076 53.8612355,41.5206777 53.3887268,41.9580338 C52.4552086,42.824445 51.8515056,43.1461066 51.1464014,43.1502571 C50.5714462,43.1538887 50.261493,43.1985063 50.4109814,44.3751654 C50.53329,45.3313305 50.53329,45.4574011 50.4109814,45.8724484 C50.339896,46.1199203 50.2766509,46.4275741 50.2766509,46.5458626 C50.2766509,46.6683016 50.2019067,47.1497564 50.1052097,47.6265419 C49.9327231,48.4680503 49.929587,48.5225253 50.061304,49.8968505 C50.2991264,52.4416091 50.2170646,53.241094 49.4748497,55.374437 C48.9934554,56.7591384 48.4195455,58.9920928 48.2282422,60.2211515 C48.1540207,60.7218023 48.0191676,61.3438544 47.9339697,61.6068906 C47.8362273,61.8994989 47.7698461,62.3062453 47.7698461,62.6839383 C47.7698461,63.2141612 47.8074795,63.3433446 48.0191676,63.6696756 C48.3301661,64.1542432 48.7441339,64.4733108 49.3326789,64.6652702 C49.8334127,64.8286951 50.4083679,65.2022376 50.7695444,65.5913444 C51.3659298,66.1573652 52.2534516,66.4873277 52.2100686,67.4170336 C51.8849575,68.465028 50.7773847,68.5013446 49.3326789,68.6569874 C48.1989717,68.7763135 46.6016415,68.9272869 45.8897424,67.8683975 C45.5045224,67.6717689 44.7889645,67.0792889 44.6473164,66.842712 C44.5798898,66.7316868 44.3148877,66.4468606 44.2882307,66.2056144 C44.2553015,65.9679998 44.1324701,65.5799306 44.0132976,65.3464665 C43.8564916,65.0388128 43.8110179,64.8390713 43.8449925,64.6403674 C43.8706041,64.4878375 43.8564916,64.3394581 43.8110179,64.3135176 C43.7028218,64.2465913 43.7179797,63.6727884 43.8334934,63.0989856 C43.9270543,62.6579978 43.9233955,62.5983348 43.7665895,62.3918488 C43.6772101,62.266297 43.5130865,62.0068924 43.4043677,61.8128578 C43.2256089,61.4963843 43.2177686,61.4330896 43.3076707,61.0284185 C43.3562805,60.7845782 43.4420011,60.3513726 43.490611,60.0551326 C43.5350394,59.7588926 43.6171012,59.2924832 43.6730286,59.018552 C43.7216385,58.7845691 43.7597946,58.0878085 43.7817474,57.1259365 C43.2407668,56.6289173 42.8895214,54.7373394 42.7112853,53.4636631 C42.229891,53.7676852 41.5953494,54.1816948 41.4531787,54.2449896 C41.0428697,54.4219035 39.8898231,54.7477156 39.6812712,54.7477156 C39.554781,54.7477156 39.3389115,54.8078974 39.2003995,54.8820871 C38.4461628,55.2784573 37.4906917,55.4927254 35.7334194,55.648887 C34.9880683,55.7184074 33.5255913,55.4444762 32.4546065,55.1855904 C31.9512593,56.1853356 31.1599118,57.2037578 31.1599118,57.2037578 C31.4029611,57.7915685 30.90275,59.8948206 30.5854792,61.0927508 C30.6450655,61.5140238 30.7271273,61.7915866 30.8724342,62.1173987 C31.0407393,62.5033927 31.1144381,62.8100089 31.1144381,63.1145498 C31.1196649,63.3583901 31.1599118,63.7101427 31.2043402,63.891207 C31.25295,64.0727902 31.2864019,64.7871903 31.2832658,65.4808381 C31.2801297,66.1724106 31.3135817,66.8017261 31.3574873,66.8873296 C31.3998249,66.9682638 31.4808414,67.2608721 31.5409503,67.5316904 C31.6496691,68.0385669 31.8880142,68.4940813 32.2800291,68.9464828 C32.3944975,69.0839673 33.0034274,69.682673 33.1853223,70.0567343 L33.5140922,70.7384495 L33.3311519,71.0938337 C33.230796,71.2977257 33.1487342,71.5161443 33.1450754,71.5789202 C33.1450754,71.6422149 33.0703313,71.8165348 32.9736342,71.9716587 C32.8800733,72.1267826 32.7750133,72.4121276 32.7457429,72.5968236 C32.6929515,72.8821686 32.6307518,72.9646593 32.3495465,73.1192644 C31.98837,73.3153742 31.5284058,73.3937144 31.059556,73.3382018 C29.9995476,73.2193945 28.9217678,72.8935824 28.7722795,72.652855 C28.7383049,72.5999365 28.6274953,72.5999365 28.4738254,72.652855 C28.2767726,72.7239319 28.1873932,72.7083676 27.9406851,72.5449427 C27.7760388,72.4411809 27.6087791,72.2678987 27.5596466,72.1677685 C27.5157409,72.0598562 27.377229,71.9337856 27.2653741,71.8829423 C26.6987818,70.7462316 26.7322337,69.9975901 27.2611926,69.2084814 L27.2397624,68.3503712 C27.2246045,67.8611342 27.253875,67.3651527 27.3103251,67.2022467 C27.4101582,66.8982245 27.3056209,66.3249405 27.0860926,65.9721503 C27.0301651,65.8829151 26.843566,65.8097631 26.7766621,64.6761652 C26.6470358,62.4281654 25.7772854,60.7518932 25.6387734,60.4629165 C25.5561889,60.3026045 25.4668095,60.0110338 25.4333576,59.8107735 C25.4040871,59.611032 25.3215027,59.3262058 25.2545988,59.1840521 C24.8244277,58.2808055 24.4674328,55.9658793 24.6310337,55.1363036 C24.683825,54.8711921 24.7319122,54.2071165 24.7397525,53.6525096 C24.7470701,52.6963444 24.7397525,52.6455011 24.5646525,52.5661233 C24.463774,52.5189117 24.3806668,52.4483537 24.3806668,52.412037 C24.3806668,52.3295464 23.8255736,52.0483519 23.4340814,51.9668988 C23.3708363,51.952891 23.3217038,51.9414772 23.284593,51.9373267 C23.1722154,51.9342139 23.1581029,52.0052907 23.1204694,52.2631388 C23.0796999,52.5744243 22.1770202,54.7259256 22.2366064,54.4483627 C22.2062906,54.4846794 22.1169112,54.6963535 22.0683014,54.8405824 C22.0123739,55.0117894 21.8226387,55.3376015 21.6428345,55.5596518 C21.463553,55.7811833 21.2931571,56.0701599 21.2586598,56.1957117 C21.2288667,56.3259328 21.0903548,56.6667904 20.9560243,56.9599175 C20.7176792,57.4844335 20.7145431,57.5145245 20.7511312,58.6335957 C20.7887646,59.7438471 20.7960822,59.7952092 21.1018539,60.4442394 C21.2774766,60.8141503 21.49021,61.1695345 21.5759306,61.2478747 C21.6616512,61.3251773 21.7296004,61.4507291 21.7296004,61.5254376 C21.7296004,61.6432072 22.4556121,62.1915884 22.6197357,62.1957389 C22.6573691,62.1957389 22.8523312,62.3062453 23.0525202,62.4437297 C23.3217038,62.6258317 24.1987719,63.3142913 24.5233602,63.3625406 C25.3105262,64.0209093 25.9152746,64.391339 25.4788313,65.8097631 C24.5233602,66.4089876 24.1951131,66.0650171 23.0948578,66.1646285 C21.918813,66.3835659 21.0156106,65.8351847 19.9791231,65.3324587 C19.7402553,65.073573 19.4600953,64.5210413 19.4600953,64.3135176 C19.4600953,64.2133875 19.2776777,63.8585221 19.0544905,63.5202585 C18.7816481,63.1103994 18.6279783,62.7840684 18.5872087,62.5168817 C18.5579383,62.3020948 18.4946932,62.1065038 18.4492194,62.0805633 C18.4053138,62.0546228 18.3708165,61.8994989 18.3708165,61.7474879 C18.3708165,61.573168 18.2960723,61.3843215 18.1659233,61.22816 C18.0504096,61.0927508 17.9521445,60.9220626 17.9521445,60.8509857 C17.9521445,60.7804277 17.7775672,60.3809447 17.5690152,59.9664162 C17.3562818,59.5508502 17.09912,58.9811978 16.9977188,58.6922211 C16.897363,58.4042821 16.7363755,58.0665373 16.6365424,57.9368351 C16.4238089,57.6670543 16.3866982,57.0662734 16.5691158,56.722303 C16.81896,56.2512243 17.002423,55.936826 17.2554033,55.5331925 C17.4012328,55.3069918 17.5355633,55.0076389 17.5648337,54.8711921 C17.5873093,54.7342265 17.6693711,54.455626 17.7482967,54.2475836 C17.8230409,54.0442104 17.9233967,53.4973857 17.9683478,53.0268258 C18.034729,52.3222831 18.0284567,52.0971199 17.9197379,51.7303219 C17.9197379,51.7303219 17.9197379,51.727209 17.9160791,51.7225397 C17.9087615,51.7121636 17.8936036,51.6898548 17.8753096,51.659245 C16.3710176,50.6563871 15.7819498,48.3450925 15.5728752,47.186073 C15.4312271,47.1673959 15.2974193,47.1315981 15.2190164,47.093725 C15.0956623,47.0309491 14.7851865,46.9536466 14.5322062,46.9230368 C14.1036032,46.8721935 14.0513345,46.8830885 13.7560166,47.1274476 C13.3159145,47.4900952 12.3499897,48.9126697 11.7781706,50.0410795 C11.4206529,50.7378401 10.7939517,51.3635238 10.274924,51.9414772 C10.0407604,52.1967313 9.6226111,52.6823366 9.3497687,53.0076299 C9.07431287,53.333442 8.718886,53.7287745 8.56208002,53.8890865 C8.40579673,54.0483609 8.09688896,54.4084144 7.88729164,54.6849397 C7.67508089,54.966653 7.34996983,55.3516094 7.16337072,55.537343 C6.86178056,55.8481097 5.93662531,56.6704221 5.71239276,57.099996 C5.66378291,57.192344 5.63817127,57.7101155 5.49234171,58.1438399 C5.34233066,58.5723762 5.14161901,59.0553875 5.044922,59.2182935 C4.67538258,59.817518 4.58234437,60.1547439 4.54052944,61.0393134 C4.5227581,61.5171366 4.48146586,62.1692797 4.44801392,62.4914601 C4.41456198,62.839581 4.43651481,63.2987271 4.49714646,63.646848 C4.55202855,63.9659155 4.61527362,64.3659174 4.63774915,64.5386808 C4.66074736,64.7088502 4.71197064,64.8733127 4.75744437,64.8987343 C4.85727751,64.9615102 5.03028677,66.2694279 4.92470408,66.6429705 C4.5149178,68.0650262 3.73506942,67.9872048 2.97821924,67.8242988 C1.47444994,67.5099005 0.560793791,67.4419365 0.0611054171,66.6502338 C-0.193442949,66.2538636 0.429599459,64.9724052 0.429599459,64.7654004 C0.429599459,64.4245428 0.851407532,62.5402282 1.00821351,62.1838063 C1.27635173,61.5845818 1.38454785,59.1591493 1.19794874,58.0587552 C1.00821351,56.9479849 1.22042426,55.6628948 1.63125592,55.4335812 C1.85444309,55.3111422 2.39646907,54.4634082 2.68708282,53.7744297 C2.93640432,53.1861002 2.96724282,53.0335703 3.01951148,51.9751998 C3.04512313,51.3339517 3.13397984,50.5604074 3.21290552,50.2449714 C3.33207806,49.7598849 3.41100373,49.1196745 3.44863717,48.2823166 C3.4512506,48.1707727 3.42929776,47.7126643 3.40316344,47.2680449 C3.25785657,44.3938425 3.22388194,41.6581621 4.90641005,39.1466073 C4.97749543,39.0132734 5.04126319,38.8804582 5.10137215,38.761651 C5.10137215,38.761651 4.93306707,38.6169032 4.79455512,38.3253325 C4.54052944,37.7919968 4.38424615,36.769424 5.47352499,35.217666 C5.5629044,35.114423 5.6564653,34.9992474 5.77250172,34.8477552 C5.8435871,34.7621517 5.9251262,34.6547582 6.01816442,34.532838 C6.49224115,33.9071543 7.72369074,32.9489139 8.24167314,32.5774466 C9.73812483,31.5107751 10.7082311,31.1299692 12.4989554,30.46745 C13.5323067,30.1260736 14.5243659,30.0778243 15.5770567,29.8848274 C15.8525125,29.8848274 16.7557149,29.8516236 17.579469,29.8811957 C20.6539115,29.9818447 22.7101605,31.1185554 22.9636635,31.2145351 C23.8287098,31.551761 24.7214585,31.8661593 25.3847477,32.0736829 C25.5901636,32.1400905 25.9858373,32.3517646 26.2984039,32.4259543 C29.8845565,33.2477479 30.0821321,32.7180438 32.1195644,32.1634369 C32.3798623,32.0928789 32.5366683,31.9626578 32.8915724,31.9595449 C33.5397038,31.9553945 34.3948191,31.5559115 34.5855997,31.3639521 C35.1255349,30.8295787 35.7334194,30.5665425 36.0365776,30.2334671 C36.9800269,29.1937737 36.7667708,28.7896214 36.9904806,28.2490223 C37.270118,27.567826 37.8602311,26.6376012 38.0996216,26.2043957 C38.1633893,26.0933705 38.3499884,25.9828642 38.4137562,25.8635381 C38.5360649,25.6378561 38.916058,25.3525111 39.5244652,25.0303307 C39.808284,24.8793572 40.0095183,24.8451158 40.7109637,24.842003 C41.322507,24.8383713 41.5880318,24.8082804 41.6549357,24.7268274 C41.7072044,24.659901 42.0364969,24.4902504 42.3893104,24.3449839 C42.748396,24.1976421 43.1618411,24.0264351 43.3118522,23.9605463 C43.463954,23.8972516 43.7216385,23.8458895 43.8868074,23.8458895 C44.0540671,23.8458895 44.3075701,23.7753315 44.452877,23.6902468 C44.5908663,23.6046433 44.8961152,23.5086636 45.1250519,23.4785727 C45.8934012,23.3831118 47.0119505,22.9348607 47.4222595,22.5602806 C48.0081911,22.0274636 48.5235601,21.760277 49.0681995,21.7125465 C49.1696007,21.7052832 49.2772742,21.7016515 49.3844249,21.7016515 C50.1308214,21.6902377 51.0188659,21.8386171 51.4516504,22.0606674 C51.6905181,22.1862192 52.1457781,22.3755845 52.4625262,22.482978 C53.1388827,22.7128105 53.4331552,22.9571695 53.8058307,23.6342154 C54.0185642,24.0160589 54.0927857,24.2785763 54.1298964,24.730459 C54.1643937,25.097257 54.1487131,25.3421349 54.0969672,25.3748199 C54.0525388,25.4012792 54.0107239,25.5714486 54.0107239,25.7494001 C54.0107239,26.130206 54.6050185,27.1050482 55.0257812,27.4230782 C55.7868129,28.0005127 56.0418839,28.0964924 56.2838878,28.7527859 C56.5227556,29.4080418 56.3952201,29.5299619 56.2128025,30.9623939 L56.0706317,32.0145387 C56.0863123,32.0555246 56.1087878,32.0887284 56.1343995,32.1297143 L56.7093547,32.6625313 C57.3574861,33.2550112 57.8984667,33.9849756 58.238213,34.7403617 C58.3385688,34.9655248 58.4990336,35.2254482 58.5931172,35.3063824 C58.6892915,35.3956176 58.8283261,35.6695488 58.9020249,35.9248028 C59.0149252,36.3139097 59.0290378,36.5027562 58.9506348,37.1362221" id="Fill-1"></path>
                        <polygon id="Fill-3" points="34.7239583 4.30921129 31.1145748 6.97616867 32.5022832 11.3089906 28.8856747 8.63416303 25.2608091 11.3089906 26.6485175 6.97616867 23.046875 4.30921129 27.4979663 4.30921129 28.8856747 0 30.265126 4.30921129"></polygon>
                        <polygon id="Fill-5" points="54.390625 7.97699204 50.7812415 10.6444741 52.1689498 14.9767714 48.5523414 12.3019438 44.9274758 14.9767714 46.3157002 10.6444741 42.7135417 7.97699204 47.164633 7.97699204 48.5523414 3.66778075 49.9317926 7.97699204"></polygon>
                        <polygon id="Fill-7" points="14.75 7.97699204 11.1406165 10.6444741 12.5283248 14.9767714 8.91171637 12.3019438 5.28736686 14.9767714 6.67455915 10.6444741 3.07291667 7.97699204 7.52400801 7.97699204 8.91171637 3.66778075 10.2916837 7.97699204"></polygon>
                    </g>
                </g>
            </g>
        </g>
    </g>
</svg>