<?xml version="1.0" encoding="UTF-8"?>
<svg width="24px" height="24px" viewBox="0 0 24 24" version="1.1" xmlns="http://www.w3.org/2000/svg" xmlns:xlink="http://www.w3.org/1999/xlink">
    <title>Icon-IG</title>
    <g id="🖥-Desktop" stroke="none" stroke-width="1" fill="none" fill-rule="evenodd">
        <g id="001-Desktop-Home" transform="translate(-1576.000000, -8865.000000)" fill="#000000">
            <g id="Footer" transform="translate(0.000000, 8656.000000)">
                <g id="Social" transform="translate(1423.000000, 209.000000)">
                    <g id="Icon-IG" transform="translate(153.000000, 0.000000)">
                        <path d="M11.9997532,0 C8.74046351,0 8.33181846,0.0138186305 7.05208826,0.0720542875 C5.77482572,0.130783467 4.90225997,0.333127699 4.13925847,0.629734732 C3.35009973,0.936705737 2.68086944,1.34682295 2.01410681,2.01406539 C1.34635711,2.68130783 0.936231467,3.35052437 0.629747681,4.13966687 C0.332641017,4.90314621 0.129799091,5.77520049 0.0715622365,7.05243677 C0.013325382,8.33214065 0,8.7407773 0,12 C0,15.2592227 0.013325382,15.6673658 0.0715622365,16.9475632 C0.129799091,18.2247995 0.332641017,19.0968538 0.629747681,19.8603331 C0.936231467,20.6494756 1.34635711,21.3186922 2.01410681,21.9859346 C2.68086944,22.6526835 3.35009973,23.0632943 4.13925847,23.3702653 C4.90225997,23.6663788 5.77482572,23.8692165 7.05208826,23.9274522 C8.33181846,23.9861814 8.74046351,24 11.9997532,24 C15.259043,24 15.667688,23.9861814 16.9474182,23.9274522 C18.2246807,23.8692165 19.0972465,23.6663788 19.8607415,23.3702653 C20.6494067,23.0632943 21.318637,22.6526835 21.9858932,21.9859346 C22.6531494,21.3186922 23.063275,20.6494756 23.3697588,19.8603331 C23.6668655,19.0968538 23.8697074,18.2247995 23.9279442,16.9475632 C23.9861811,15.6673658 24,15.2592227 24,12 C24,8.7407773 23.9861811,8.33214065 23.9279442,7.05243677 C23.8697074,5.77520049 23.6668655,4.90314621 23.3697588,4.13966687 C23.063275,3.35052437 22.6531494,2.68130783 21.9858932,2.01406539 C21.318637,1.34682295 20.6494067,0.936705737 19.8607415,0.629734732 C19.0972465,0.333127699 18.2246807,0.130783467 16.9474182,0.0720542875 C15.667688,0.0138186305 15.259043,0 11.9997532,0 M11.9997532,2.16212215 C15.2037673,2.16212215 15.5837875,2.17446021 16.8487117,2.23220234 C18.0188776,2.28550278 18.6540542,2.48093769 19.0770117,2.64528069 C19.6376648,2.86292412 20.0369327,3.12301049 20.456929,3.54299815 C20.8769253,3.96298581 21.137017,4.36273905 21.3546649,4.92288711 C21.5190113,5.3458359 21.7144502,5.98099938 21.7677518,7.15114127 C21.8254951,8.416533 21.8378334,8.79605182 21.8378334,12 C21.8378334,15.2044417 21.8254951,15.583467 21.7677518,16.8493523 C21.7144502,18.0190006 21.5190113,18.6546576 21.3546649,19.0771129 C21.137017,19.637261 20.8769253,20.0375077 20.456929,20.4570019 C20.0369327,20.8769895 19.6376648,21.1370759 19.0770117,21.3547193 C18.6540542,21.5190623 18.0188776,21.7144972 16.8487117,21.7677977 C15.5837875,21.8255398 15.2042608,21.8378779 11.9997532,21.8378779 C8.79524564,21.8378779 8.41571902,21.8255398 7.15079479,21.7677977 C5.98062884,21.7144972 5.3454523,21.5190623 4.92249481,21.3547193 C4.3618417,21.1370759 3.96257377,20.8769895 3.54257747,20.4570019 C3.12307471,20.0375077 2.86248946,19.637261 2.64484156,19.0771129 C2.48049518,18.6546576 2.28505624,18.0190006 2.23175471,16.8493523 C2.17401139,15.583467 2.16167308,15.2044417 2.16167308,12 C2.16167308,8.79605182 2.17401139,8.416533 2.23175471,7.15114127 C2.28505624,5.98099938 2.48049518,5.3458359 2.64484156,4.92288711 C2.86248946,4.36273905 3.12258118,3.96298581 3.54257747,3.54299815 C3.96257377,3.12301049 4.3618417,2.86292412 4.92249481,2.64528069 C5.3454523,2.48093769 5.98062884,2.28550278 7.15079479,2.23220234 C8.41571902,2.17446021 8.79573917,2.16212215 11.9997532,2.16212215" id="Fill-1"></path>
                        <path d="M12,15.8947621 C9.84863047,15.8947621 8.1057184,14.150889 8.1057184,12 C8.1057184,9.849111 9.84863047,8.10523787 12,8.10523787 C14.1513695,8.10523787 15.8947621,9.849111 15.8947621,12 C15.8947621,14.150889 14.1513695,15.8947621 12,15.8947621 M12,6 C8.68620855,6 6,8.68620855 6,12 C6,15.3137914 8.68620855,18 12,18 C15.3137914,18 18,15.3137914 18,12 C18,8.68620855 15.3137914,6 12,6" id="Fill-3"></path>
                        <path d="M20,5.49974293 C20,6.3285347 19.3281357,7 18.5,7 C17.6718643,7 17,6.3285347 17,5.49974293 C17,4.6714653 17.6718643,4 18.5,4 C19.3281357,4 20,4.6714653 20,5.49974293" id="Fill-5"></path>
                    </g>
                </g>
            </g>
        </g>
    </g>
</svg>