<?xml version="1.0" encoding="UTF-8"?>
<svg width="48px" height="48px" viewBox="0 0 48 48" version="1.1" xmlns="http://www.w3.org/2000/svg" xmlns:xlink="http://www.w3.org/1999/xlink">
    <title>Icon-IG</title>
    <g id="🖥-Desktop" stroke="none" stroke-width="1" fill="none" fill-rule="evenodd">
        <g id="001-Desktop-Home" transform="translate(-216.000000, -8060.000000)" fill="#FBD928">
            <g id="Afterhours" transform="translate(0.000000, 7361.000000)">
                <g id="Social-Block" transform="translate(0.000000, 361.000000)">
                    <g id="Handle" transform="translate(188.000000, 338.000000)">
                        <g id="Icon-IG" transform="translate(28.000000, 0.000000)">
                            <path d="M23.8177959,-3.93263653e-13 C17.3485714,-3.93263653e-13 16.5374694,0.0274285714 13.9973878,0.143020408 C11.4622041,0.259591837 9.73028571,0.66122449 8.21583673,1.24995918 C6.64946939,1.85926531 5.32114286,2.67330612 3.99771429,3.99771429 C2.67232653,5.32212245 1.85828571,6.65044898 1.24995918,8.21681633 C0.660244898,9.7322449 0.257632653,11.4631837 0.142040816,13.9983673 C0.0264489796,16.538449 -4.87229305e-14,17.349551 -4.87229305e-14,23.8187755 C-4.87229305e-14,30.288 0.0264489796,31.0981224 0.142040816,33.6391837 C0.257632653,36.1743673 0.660244898,37.9053061 1.24995918,39.4207347 C1.85828571,40.987102 2.67232653,42.3154286 3.99771429,43.6398367 C5.32114286,44.9632653 6.64946939,45.7782857 8.21583673,46.3875918 C9.73028571,46.9753469 11.4622041,47.3779592 13.9973878,47.493551 C16.5374694,47.6101224 17.3485714,47.637551 23.8177959,47.637551 C30.2870204,47.637551 31.0981224,47.6101224 33.6382041,47.493551 C36.1733878,47.3779592 37.9053061,46.9753469 39.4207347,46.3875918 C40.9861224,45.7782857 42.314449,44.9632653 43.6388571,43.6398367 C44.9632653,42.3154286 45.7773061,40.987102 46.3856327,39.4207347 C46.9753469,37.9053061 47.3779592,36.1743673 47.493551,33.6391837 C47.6091429,31.0981224 47.6365714,30.288 47.6365714,23.8187755 C47.6365714,17.349551 47.6091429,16.538449 47.493551,13.9983673 C47.3779592,11.4631837 46.9753469,9.7322449 46.3856327,8.21681633 C45.7773061,6.65044898 44.9632653,5.32212245 43.6388571,3.99771429 C42.314449,2.67330612 40.9861224,1.85926531 39.4207347,1.24995918 C37.9053061,0.66122449 36.1733878,0.259591837 33.6382041,0.143020408 C31.0981224,0.0274285714 30.2870204,-3.93263653e-13 23.8177959,-3.93263653e-13 M23.8177959,4.29159184 C30.1773061,4.29159184 30.9315918,4.31608163 33.4422857,4.43069388 C35.764898,4.5364898 37.0256327,4.92440816 37.8651429,5.25061224 C38.9779592,5.68261224 39.770449,6.19885714 40.6040816,7.0324898 C41.4377143,7.86612245 41.9539592,8.65959184 42.3859592,9.77142857 C42.7121633,10.6109388 43.1000816,11.8716735 43.2058776,14.1942857 C43.3204898,16.7059592 43.3449796,17.4592653 43.3449796,23.8187755 C43.3449796,30.1792653 43.3204898,30.9315918 43.2058776,33.4442449 C43.1000816,35.7658776 42.7121633,37.0275918 42.3859592,37.8661224 C41.9539592,38.9779592 41.4377143,39.7724082 40.6040816,40.6050612 C39.770449,41.4386939 38.9779592,41.9549388 37.8651429,42.3869388 C37.0256327,42.7131429 35.764898,43.1010612 33.4422857,43.2068571 C30.9315918,43.3214694 30.1782857,43.3459592 23.8177959,43.3459592 C17.4573061,43.3459592 16.704,43.3214694 14.1933061,43.2068571 C11.8706939,43.1010612 10.6099592,42.7131429 9.77044898,42.3869388 C8.65763265,41.9549388 7.86514286,41.4386939 7.0315102,40.6050612 C6.19885714,39.7724082 5.68163265,38.9779592 5.24963265,37.8661224 C4.92342857,37.0275918 4.5355102,35.7658776 4.42971429,33.4442449 C4.31510204,30.9315918 4.29061224,30.1792653 4.29061224,23.8187755 C4.29061224,17.4592653 4.31510204,16.7059592 4.42971429,14.1942857 C4.5355102,11.8716735 4.92342857,10.6109388 5.24963265,9.77142857 C5.68163265,8.65959184 6.19787755,7.86612245 7.0315102,7.0324898 C7.86514286,6.19885714 8.65763265,5.68261224 9.77044898,5.25061224 C10.6099592,4.92440816 11.8706939,4.5364898 14.1933061,4.43069388 C16.704,4.31608163 17.4582857,4.29159184 23.8177959,4.29159184" id="Fill-1"></path>
                            <path d="M23.8177959,31.7583673 C19.4321633,31.7583673 15.8791837,28.2034286 15.8791837,23.8187755 C15.8791837,19.4341224 19.4321633,15.8791837 23.8177959,15.8791837 C28.2034286,15.8791837 31.7573878,19.4341224 31.7573878,23.8187755 C31.7573878,28.2034286 28.2034286,31.7583673 23.8177959,31.7583673 M23.8177959,11.5875918 C17.0625306,11.5875918 11.5866122,17.0635102 11.5866122,23.8187755 C11.5866122,30.5740408 17.0625306,36.0499592 23.8177959,36.0499592 C30.5730612,36.0499592 36.0489796,30.5740408 36.0489796,23.8187755 C36.0489796,17.0635102 30.5730612,11.5875918 23.8177959,11.5875918" id="Fill-3"></path>
                            <path d="M39.3908571,11.1041633 C39.3908571,12.6832653 38.1105306,13.9626122 36.5324082,13.9626122 C34.9542857,13.9626122 33.6739592,12.6832653 33.6739592,11.1041633 C33.6739592,9.52604082 34.9542857,8.24669388 36.5324082,8.24669388 C38.1105306,8.24669388 39.3908571,9.52604082 39.3908571,11.1041633" id="Fill-5"></path>
                        </g>
                    </g>
                </g>
            </g>
        </g>
    </g>
</svg>