<?xml version="1.0" encoding="UTF-8"?>
<svg width="48px" height="48px" viewBox="0 0 48 48" version="1.1" xmlns="http://www.w3.org/2000/svg" xmlns:xlink="http://www.w3.org/1999/xlink">
    <title>Icon-LinkedIn</title>
    <g id="🖥-Desktop" stroke="none" stroke-width="1" fill="none" fill-rule="evenodd">
        <g id="001-Desktop-Home" transform="translate(-456.000000, -8294.000000)" fill="#000000">
            <g id="Afterhours" transform="translate(0.000000, 7361.000000)">
                <g id="LinkedIn-Post" transform="translate(0.000000, 841.000000)">
                    <g id="Icon-LinkedIn" transform="translate(456.000000, 92.000000)">
                        <path d="M0.269866667,47.3270933 L10.5322667,47.3270933 L10.5322667,14.3132267 L0.269866667,14.3132267 L0.269866667,47.3270933 Z M10.8688,5.13136 C10.8688,7.96602667 8.776,10.2620267 5.33226667,10.2620267 C2.0928,10.2620267 0,7.96602667 0,5.13136 C0,2.22789333 2.16053333,0.00016 5.46773333,0.00016 C8.776,0.00016 10.8021333,2.22789333 10.8688,5.13136 L10.8688,5.13136 Z" id="Fill-1"></path>
                        <path d="M16.67296,24.8448 C16.67296,20.7269333 16.53856,17.2842667 16.40416,14.3130667 L25.31456,14.3130667 L25.7886933,18.904 L25.9908267,18.904 C27.3406933,16.7429333 30.64896,13.5696 36.1854933,13.5696 C42.9364267,13.5696 47.9998933,18.0938667 47.9998933,27.8149333 L47.9998933,47.3269333 L37.7374933,47.3269333 L37.7374933,29.0309333 C37.7374933,24.7770667 36.25216,21.8752 32.53856,21.8752 C29.70336,21.8752 28.01696,23.8325333 27.2740267,25.7226667 C27.0030933,26.3973333 26.93536,27.3434667 26.93536,28.2885333 L26.93536,47.3269333 L16.67296,47.3269333 L16.67296,24.8448 Z" id="Fill-3"></path>
                    </g>
                </g>
            </g>
        </g>
    </g>
</svg>