<?xml version="1.0" encoding="UTF-8"?>
<svg width="25px" height="24px" viewBox="0 0 25 24" version="1.1" xmlns="http://www.w3.org/2000/svg" xmlns:xlink="http://www.w3.org/1999/xlink">
    <title>Icon-LinkedIn</title>
    <g id="🖥-Desktop" stroke="none" stroke-width="1" fill="none" fill-rule="evenodd">
        <g id="001-Desktop-Home" transform="translate(-1523.000000, -8865.000000)" fill="#000000">
            <g id="Footer" transform="translate(0.000000, 8656.000000)">
                <g id="Social" transform="translate(1423.000000, 209.000000)">
                    <g id="Icon-LinkedIn" transform="translate(100.666667, 0.000000)">
                        <path d="M0.124147407,24 L4.84518377,24 L4.84518377,7.25831098 L0.124147407,7.25831098 L0.124147407,24 Z M5,2.60208704 C5,4.03957718 4.03724422,5.20390363 2.45301536,5.20390363 C0.962755778,5.20390363 0,4.03957718 0,2.60208704 C0,1.12970768 0.993915305,0 2.51533441,0 C4.03724422,0 4.96933117,1.12970768 5,2.60208704 L5,2.60208704 Z" id="Fill-1"></path>
                        <path d="M9.12761217,12.6781262 C9.12761217,10.6043921 9.06380608,8.87068489 9,7.37440556 L13.2301914,7.37440556 L13.4552851,9.68637333 L13.5512474,9.68637333 C14.1920934,8.59807252 15.7626853,7 18.3911414,7 C21.5961311,7 24,9.27839482 24,14.1738684 L24,24 L19.1279498,24 L19.1279498,14.786239 C19.1279498,12.6440161 18.4227913,11.1826527 16.6597684,11.1826527 C15.3137639,11.1826527 14.5131495,12.1683545 14.1604436,13.1202149 C14.0318186,13.4599731 13.9996624,13.9364405 13.9996624,14.4123706 L13.9996624,24 L9.12761217,24 L9.12761217,12.6781262 Z" id="Fill-3"></path>
                    </g>
                </g>
            </g>
        </g>
    </g>
</svg>