<?xml version="1.0" encoding="UTF-8"?>
<svg width="306px" height="75px" viewBox="0 0 306 75" version="1.1" xmlns="http://www.w3.org/2000/svg" xmlns:xlink="http://www.w3.org/1999/xlink">
    <title>Group</title>
    <g id="📱-Mobile" stroke="none" stroke-width="1" fill="none" fill-rule="evenodd">
        <g id="005-Mobile-Side-Navigation" transform="translate(-33.000000, -121.000000)" fill="#000000">
            <g id="Group" transform="translate(33.000000, 121.000000)">
                <g id="Logo-Mark-Bulldog-K">
                    <path d="M60.9489614,37.8372186 C60.8100774,38.9923579 60.7257742,39.2164656 60.343708,39.4522843 C60.162132,39.565669 59.8692326,39.8509937 59.6919799,40.0862801 C59.5147271,40.3258251 59.248848,40.5994388 59.0986154,40.7016446 C58.9467617,40.8043828 58.6511603,41.0519127 58.4339176,41.2494042 C57.98322,41.6667449 57.6357397,41.7966315 57.0034661,41.7966315 C56.7521779,41.7966315 56.4484704,41.8344264 56.3236369,41.8844647 C56.1971822,41.9291798 55.6870401,42.335874 55.1985142,42.7846216 C54.2333513,43.6735998 53.6091838,44.0036396 52.8801777,44.0078982 C52.2857325,44.0116244 51.9652724,44.0574041 52.1198282,45.264711 C52.2462829,46.2457809 52.2462829,46.3751353 52.1198282,46.8009931 C52.0463331,47.0549108 51.9809442,47.3705779 51.9809442,47.4919473 C51.9809442,47.6175754 51.9036663,48.1115705 51.8036914,48.6007746 C51.6253578,49.4642013 51.6221154,49.5200951 51.7582974,50.9302168 C52.0041816,53.5412575 51.919338,54.3615661 51.1519632,56.5504752 C50.6542505,57.9712433 50.060886,60.2623583 49.8630979,61.5234297 C49.7863604,62.0371207 49.646936,62.6753751 49.55885,62.9452624 C49.4577943,63.2454922 49.3891629,63.6628328 49.3891629,64.0503634 C49.3891629,64.5943968 49.428072,64.726945 49.646936,65.0617757 C49.9684768,65.5589647 50.3964774,65.8863429 51.0049732,66.0833021 C51.5226809,66.2509837 52.1171262,66.6342557 52.4905459,67.0334974 C53.1071477,67.614261 54.024755,67.9528179 53.9799014,68.9067394 C53.6437697,69.9820303 52.4986519,70.0192929 51.0049732,70.1789896 C49.8328352,70.3014237 48.1813582,70.4563295 47.4453269,69.3698598 C47.0470486,69.1681096 46.3072345,68.5601976 46.1607848,68.3174587 C46.0910725,68.2035417 45.8170873,67.9112968 45.7895267,67.6637669 C45.7554812,67.4199633 45.6284861,67.0217863 45.5052738,66.7822413 C45.3431523,66.4665742 45.2961371,66.2616301 45.3312634,66.0577507 C45.3577433,65.9012479 45.3431523,65.7490038 45.2961371,65.7223877 C45.1842733,65.6537181 45.1999451,65.0649697 45.3193745,64.4762213 C45.416107,64.0237473 45.4123242,63.9625303 45.2502027,63.750666 C45.1577935,63.621844 44.9881064,63.3556829 44.8757022,63.1565944 C44.6908838,62.8318778 44.6827777,62.7669345 44.7757273,62.3517231 C44.825985,62.1015317 44.9146114,61.6570426 44.964869,61.3530866 C45.0108034,61.0491306 45.095647,60.5705729 45.1534703,60.2895067 C45.2037279,60.0494294 45.2431775,59.3345206 45.2658745,58.3475951 C44.7065555,57.8376304 44.3434035,55.8967834 44.1591255,54.5899323 C43.6614127,54.9018732 43.0053613,55.3266663 42.8583712,55.3916096 C42.4341534,55.5731315 41.2420205,55.9074299 41.026399,55.9074299 C40.8956211,55.9074299 40.6724339,55.9691793 40.5292266,56.0453014 C39.7494225,56.4519956 38.7615626,56.6718447 36.9447218,56.8320737 C36.1741046,56.9034048 34.662052,56.6223387 33.5547626,56.3567099 C33.0343528,57.3824949 32.21618,58.4274435 32.21618,58.4274435 C32.4674682,59.0305646 31.9503008,61.188599 31.6222751,62.4177311 C31.6838813,62.8499768 31.7687248,63.1347692 31.9189574,63.4690675 C32.0929677,63.8651153 32.1691648,64.1797178 32.1691648,64.4921909 C32.1745688,64.7423824 32.21618,65.1032969 32.2621144,65.2890773 C32.312372,65.4753901 32.3469579,66.2083979 32.3437155,66.9201127 C32.3404731,67.6296983 32.375059,68.2754052 32.420453,68.3632384 C32.4642258,68.4462806 32.5479885,68.7465104 32.6101351,69.0243826 C32.7225393,69.5444615 32.9689638,70.0118404 33.3742674,70.4760254 C33.4926161,70.6170908 34.1221876,71.2313907 34.3102485,71.615195 L34.6501631,72.3146665 L34.4610214,72.6793072 C34.3572637,72.8885099 34.2724202,73.1126175 34.2686373,73.1770285 C34.2686373,73.2419718 34.1913594,73.4208321 34.0913846,73.5799965 C33.9946521,73.7391608 33.8860307,74.0319381 33.8557681,74.2214448 C33.8011872,74.514222 33.736879,74.5988613 33.4461413,74.7574933 C33.0727216,74.9587111 32.5971654,75.0390918 32.1124223,74.9821333 C31.0164814,74.8602315 29.9021668,74.5259331 29.747611,74.2789356 C29.7124847,74.2246387 29.5979189,74.2246387 29.4390399,74.2789356 C29.2353073,74.3518637 29.142898,74.3358941 28.887827,74.1682126 C28.7175995,74.0617481 28.54467,73.8839525 28.4938719,73.7812143 C28.4484779,73.6704913 28.3052706,73.541137 28.189624,73.4889694 C27.6038253,72.3226513 27.6384112,71.5545103 28.1853008,70.7448481 L28.1631442,69.8643871 C28.1474725,69.3624072 28.1777351,68.8535072 28.2360988,68.686358 C28.3393161,68.3744171 28.2312352,67.786201 28.0042652,67.4242219 C27.9464419,67.3326625 27.7535174,67.257605 27.6843456,66.0944809 C27.5503252,63.7879286 26.6510916,62.0679954 26.5078844,61.7714919 C26.4225004,61.6070043 26.3300912,61.3078392 26.2955053,61.1023628 C26.2652426,60.8974187 26.1798587,60.6051738 26.1106869,60.4593175 C25.6659337,59.5325445 25.2968373,57.1573226 25.465984,56.3061393 C25.5205648,56.0341226 25.5702821,55.3527501 25.5783882,54.7836976 C25.5859538,53.8026277 25.5783882,53.7504601 25.3973526,53.6690148 C25.2930544,53.6205735 25.2071301,53.5481777 25.2071301,53.5109151 C25.2071301,53.4262759 24.6332202,53.1377572 24.228457,53.0541826 C24.1630681,53.0398099 24.11227,53.0280988 24.0739013,53.0238402 C23.9577142,53.0206463 23.9431233,53.0935744 23.9042142,53.3581386 C23.8620626,53.677532 22.9287836,55.8850724 22.9903897,55.60028 C22.9590462,55.6375425 22.866637,55.85473 22.8163794,56.0027156 C22.7585561,56.1783819 22.5623891,56.5126803 22.3764899,56.7405142 C22.191131,56.9678158 22.0149591,57.2643193 21.9792924,57.3931413 C21.9484893,57.5267542 21.805282,57.8764899 21.666398,58.177252 C21.4199734,58.7154298 21.416731,58.7463045 21.4545593,59.8945236 C21.4934685,61.0336932 21.5010341,61.0863931 21.8171709,61.7523283 C21.9987469,62.131874 22.2186917,62.4965148 22.3073181,62.5768954 C22.3959445,62.6562115 22.4661971,62.7850334 22.4661971,62.8616878 C22.4661971,62.982525 23.2168193,63.5451896 23.3865064,63.5494482 C23.4254155,63.5494482 23.6269865,63.6628328 23.8339616,63.8038982 C24.11227,63.9907434 25.0190692,64.697135 25.3546606,64.746641 C26.1685102,65.4221579 26.7937585,65.802236 26.3425205,67.257605 C25.3546606,67.8724372 25.0152864,67.5195076 23.8777343,67.6217135 C22.6618236,67.8463535 21.7280042,67.2836888 20.6563815,66.7678686 C20.4094165,66.5022398 20.1197595,65.9353166 20.1197595,65.7223877 C20.1197595,65.6196495 19.9311583,65.255541 19.7004054,64.9084669 C19.4183141,64.4879323 19.2594351,64.1531016 19.2172836,63.8789557 C19.1870209,63.6585743 19.1216319,63.4578888 19.0746167,63.4312727 C19.0292227,63.4046566 18.993556,63.2454922 18.993556,63.0895218 C18.993556,62.9106615 18.9162781,62.7168962 18.7817173,62.5566672 C18.6622879,62.4177311 18.5606918,62.2425971 18.5606918,62.1696689 C18.5606918,62.0972731 18.3801966,61.687385 18.1645751,61.2620595 C17.9446303,60.8356693 17.6787512,60.2511795 17.5739127,59.954676 C17.4701549,59.6592372 17.3037103,59.3126954 17.200493,59.1796148 C16.9805482,58.9028072 16.9421795,58.2863781 17.1307807,57.9334484 C17.3890942,57.4500998 17.5787763,57.1275125 17.8403322,56.7133658 C17.9911051,56.4812733 18.1299892,56.1741233 18.1602518,56.0341226 C18.1834892,55.8935895 18.2683328,55.6077325 18.3499339,55.3942712 C18.4272118,55.1856009 18.5309695,54.6245333 18.5774443,54.141717 C18.6460757,53.4188233 18.6395909,53.1877955 18.5271867,52.8114437 C18.5271867,52.8114437 18.5271867,52.8082497 18.5234038,52.8034588 C18.5158382,52.7928124 18.5001664,52.7699225 18.4812523,52.7385155 C16.9259673,51.7095366 16.3169312,49.3380409 16.1007692,48.148833 C15.9543196,48.1296694 15.8159759,48.0929392 15.7349152,48.0540796 C15.6073797,47.9896687 15.2863793,47.9103526 15.0248233,47.8789456 C14.5816914,47.826778 14.527651,47.8379568 14.2223223,48.0886806 C13.7673014,48.4607739 12.7686334,49.9204015 12.1774306,51.0782024 C11.8077937,51.7931112 11.1598484,52.4350918 10.6232265,53.0280988 C10.3811251,53.2900014 9.94880131,53.788255 9.66671001,54.122021 C9.3819167,54.4563194 9.01444145,54.861949 8.85232002,55.0264366 C8.69073899,55.1898595 8.37135977,55.5592911 8.15465746,55.8430189 C7.93525312,56.1320699 7.59912135,56.527053 7.40619685,56.7176244 C7.09438329,57.0364854 6.13786684,57.8802162 5.9060332,58.320979 C5.85577555,58.4157324 5.82929572,58.94699 5.67852279,59.3920114 C5.52342662,59.8317096 5.31591118,60.3273016 5.2159363,60.4944508 C4.83387013,61.109283 4.73767808,61.4552924 4.69444569,62.3629019 C4.67607193,62.8531707 4.63337996,63.5222998 4.59879405,63.8528719 C4.56420814,64.2100601 4.58690514,64.6811653 4.6495921,65.0383536 C4.7063346,65.3657317 4.77172358,65.7761522 4.79496098,65.9534155 C4.81873879,66.1280172 4.87169846,66.2967634 4.91871368,66.3228472 C5.02193099,66.3872582 5.20080497,67.7292426 5.0916432,68.1125146 C4.66796586,69.5716099 3.86168194,69.4917615 3.07917583,69.3246124 C1.52443129,69.0020251 0.57980375,68.9322909 0.0631767872,68.1199671 C-0.200000337,67.7132729 0.444162152,66.3984369 0.444162152,66.1860403 C0.444162152,65.8363046 0.880268804,63.9029102 1.04239024,63.5372048 C1.31961789,62.9223726 1.43148167,60.433766 1.23855717,59.3047105 C1.04239024,58.1650086 1.26179457,56.8464464 1.68655273,56.6111599 C1.91730556,56.4855319 2.47770531,55.6157173 2.77817037,54.9087933 C3.03594345,54.3051399 3.06782733,54.1486372 3.1218678,53.0626998 C3.14834764,52.4047494 3.24021645,51.611057 3.32181757,51.287405 C3.44502986,50.7896837 3.52663098,50.1327981 3.56554012,49.2736299 C3.56824215,49.1591807 3.54554515,48.6891401 3.51852491,48.2329399 C3.36829238,45.2838746 3.33316607,42.4769394 5.07272904,39.8999673 C5.14622409,39.7631605 5.21215347,39.626886 5.27430002,39.5049842 C5.27430002,39.5049842 5.10028968,39.3564663 4.95708241,39.0573012 C4.69444569,38.5100739 4.53286467,37.4608668 5.65906822,35.8686909 C5.75147743,35.7627588 5.84820989,35.6445832 5.96817975,35.4891451 C6.04167479,35.4013119 6.12597794,35.2911212 6.22216999,35.1660255 C6.71231712,34.5240449 7.98551076,33.5408457 8.52105189,33.1597029 C10.0682308,32.0652484 11.071222,31.6745238 12.9226488,30.9947483 C13.991029,30.6444803 15.0167173,30.5949743 16.1050925,30.3969504 C16.3898858,30.3969504 17.3237052,30.3628818 18.1753832,30.3932242 C21.354044,30.4964947 23.4799964,31.6628127 23.7420927,31.7612924 C24.6364626,32.1073018 25.559474,32.4298891 26.2452477,32.642818 C26.4576267,32.7109553 26.8667131,32.9281427 27.1898752,33.0042648 C30.8975923,33.8474633 31.1018653,33.3039623 33.2083632,32.7349098 C33.4774847,32.6625139 33.6396062,32.528901 34.006541,32.5257071 C34.6766429,32.5214485 35.5607451,32.1115604 35.7579929,31.9146012 C36.316231,31.3663092 36.9447218,31.0964219 37.2581565,30.754671 C38.2335871,29.6878972 38.013102,29.2732181 38.2443952,28.7185383 C38.5335118,28.0195992 39.1436288,27.0651454 39.3911342,26.6206563 C39.4570635,26.5067394 39.6499881,26.3933547 39.7159174,26.2709206 C39.8423722,26.0393604 40.2352464,25.7465832 40.8642776,25.4160111 C41.1577174,25.2611053 41.3657732,25.225972 42.0909964,25.2227781 C42.72327,25.2190518 42.9977956,25.1881771 43.0669674,25.1046025 C43.1210079,25.035933 43.4614629,24.8618636 43.8262361,24.7128134 C44.1974942,24.5616338 44.6249544,24.3859675 44.7800506,24.3183626 C44.9373084,24.2534193 45.2037279,24.2007193 45.3744958,24.2007193 C45.5474253,24.2007193 45.8095217,24.1283235 45.9597542,24.0410227 C46.102421,23.9531895 46.4180174,23.8547099 46.6547147,23.8238352 C47.4491097,23.7258879 48.605576,23.2659615 49.0297937,22.8816248 C49.6355875,22.3349298 50.1684266,22.0607839 50.7315283,22.0118102 C50.8363669,22.0043577 50.9476902,22.0006315 51.0584732,22.0006315 C51.8301712,21.9889204 52.7483189,22.1411645 53.1957741,22.3689985 C53.4427391,22.4978205 53.9134316,22.6921181 54.2409169,22.8023088 C54.9402007,23.0381275 55.2444486,23.2888513 55.6297572,23.9835319 C55.8497019,24.375321 55.9264394,24.6446761 55.9648082,25.1083288 C56.0004749,25.4846806 55.9842627,25.7359367 55.9307627,25.769473 C55.8848283,25.7966215 55.8415959,25.9712232 55.8415959,26.1538097 C55.8415959,26.5445342 56.4560361,27.5447678 56.8910619,27.8710813 C57.6778913,28.463556 57.9416088,28.5620356 58.1918162,29.2354232 C58.4387812,29.9077463 58.3069224,30.032842 58.1183212,31.5025837 L57.9713311,32.5821333 C57.9875432,32.6241867 58.0107806,32.6582554 58.0372605,32.7003088 L58.6317057,33.2470038 C59.3018076,33.8549158 59.8611266,34.6038932 60.2123897,35.3789544 C60.3161474,35.6099823 60.4820517,35.8766757 60.5793245,35.959718 C60.678759,36.0512774 60.8225067,36.3323436 60.8987037,36.5942461 C61.0154312,36.9934878 61.0300221,37.1872531 60.9489614,37.8372186" id="Fill-1"></path>
                    <polygon id="Fill-3" points="36 4.57251554 32.290803 7.4024311 33.7168869 12 30.0002652 9.16173332 26.275158 12 27.7012419 7.4024311 24 4.57251554 28.5741813 4.57251554 30.0002652 0 31.4178636 4.57251554"></polygon>
                    <polygon id="Fill-5" points="56 8.57251554 52.290803 11.4029878 53.7168869 16 50.0002652 13.1617333 46.275158 16 47.7017722 11.4029878 44 8.57251554 48.5741813 8.57251554 50.0002652 4 51.4178636 8.57251554"></polygon>
                    <polygon id="Fill-7" points="15 8.57251554 11.290803 11.4029878 12.7168869 16 9.00026517 13.1617333 5.27568834 16 6.70124188 11.4029878 3 8.57251554 7.57418129 8.57251554 9.00026517 4 10.418394 8.57251554"></polygon>
                </g>
                <g id="Word-Mark-K" transform="translate(91.000000, 26.000000)">
                    <path d="M20.4810306,12.3975166 C20.4810306,10.9852438 19.9592773,9.79179413 18.9187183,8.76534101 C17.8855287,7.75184452 16.6518915,7.25373403 15.2163328,7.25373403 L6.43495824,7.25373403 L6.43495824,17.5355408 L15.2163328,17.5355408 C16.6518915,17.5355408 17.8855287,17.023034 18.9187183,16.0109771 C19.9592773,15.0032392 20.4810306,13.7896347 20.4810306,12.3975166 M27,12.3716034 C27,15.5056685 25.862165,18.1761742 23.5805994,20.4047148 C21.3019815,22.6303761 18.5635133,23.7489653 15.3548774,23.7489653 L6.43495824,23.7489653 L6.43495824,33 L0,33 L0,1 L15.3548774,1 C18.5635133,1 21.3019815,2.10851179 23.5805994,4.33129386 C25.862165,6.56127407 27,9.24473637 27,12.3716034" id="Fill-1"></path>
                    <path d="M51.1131732,23.3508986 L47.480485,15.5005235 L43.9085101,23.3508986 L51.1131732,23.3508986 Z M63,34 L55.9268827,34 L54.040429,29.873844 L40.9292143,29.873844 L39.0615528,34 L32,34 L47.480485,0 L63,34 Z" id="Fill-4"></path>
                    <polygon id="Fill-6" points="94 1 78.9992554 35 64 1 71.2151899 1 78.9992554 18.677211 86.7937453 1"></polygon>
                    <polygon id="Fill-8" points="172 35 150.588147 15.7180725 150.588147 33.9922087 144 33.9922087 144 1 165.395349 20.4374153 165.395349 1.99195461 172 1.99195461"></polygon>
                    <polygon id="Fill-10" points="208 33 186 33 186 1 208 1 208 7.33463805 192.343938 7.33463805 192.343938 13.6577586 206.71105 13.6577586 206.71105 19.9981554 192.343938 19.9981554 192.343938 26.669681 208 26.669681"></polygon>
                    <path d="M117.005822,25.8625 C112.628821,25.8625 109.084425,22.3154966 109.084425,17.9388699 C109.084425,13.5636986 112.628821,10.0166952 117.005822,10.0166952 C121.379913,10.0166952 124.92722,13.5636986 124.92722,17.9388699 C124.92722,22.3154966 121.379913,25.8625 117.005822,25.8625 M117.004367,1 C107.611354,1 100,8.61070205 100,18 C100,27.3907534 107.611354,35 117.004367,35 C126.387191,35 134,27.3907534 134,18 C134,8.61070205 126.387191,1 117.004367,1" id="Fill-12"></path>
                    <path d="M213.105631,30.2941588 L212.64673,30.2941588 L212.64673,30.9167541 L213.116824,30.9167541 C213.354669,30.9167541 213.480588,30.7894369 213.480588,30.6089542 C213.480588,30.3976915 213.336481,30.2941588 213.105631,30.2941588 M213.495978,31.2441413 L214.01504,32.0066457 L213.469395,32.0066457 L213.017489,31.3196922 L212.64673,31.3196922 L212.64673,32.0066457 L212.176635,32.0066457 L212.176635,29.880028 L213.12242,29.880028 C213.628891,29.880028 213.954879,30.1388597 213.954879,30.5795733 C213.954879,30.9293459 213.7688,31.1434068 213.495978,31.2441413 M213.006296,29.2210563 C211.996153,29.2210563 211.232249,30.0241343 211.232249,31.0062959 C211.232249,31.9884575 211.989157,32.7789437 212.995103,32.7789437 C214.005247,32.7789437 214.766352,31.9786639 214.766352,30.9951032 C214.766352,30.0129416 214.009444,29.2210563 213.006296,29.2210563 M212.995103,33 C211.873033,33 211,32.0989857 211,31.0062959 C211,29.9122071 211.884225,29 213.006296,29 C214.125568,29 215,29.9010143 215,30.9951032 C215,32.0877929 214.117174,33 212.995103,33" id="Fill-14"></path>
                </g>
            </g>
        </g>
    </g>
</svg>