<?xml version="1.0" encoding="UTF-8"?>
<svg width="331px" height="54px" viewBox="0 0 331 54" version="1.1" xmlns="http://www.w3.org/2000/svg" xmlns:xlink="http://www.w3.org/1999/xlink">
    <title>Word-Mark-K</title>
    <g id="⚡️-Symbols" stroke="none" stroke-width="1" fill="none" fill-rule="evenodd">
        <g id="Word-Mark-K" fill="#000000">
            <path d="M31.1008243,19.8086198 C31.1008243,17.6019435 30.3085321,15.7371783 28.728424,14.1333453 C27.1595065,12.5497571 25.2862056,11.7714594 23.1062831,11.7714594 L9.77160325,11.7714594 L9.77160325,27.8367824 L23.1062831,27.8367824 C25.2862056,27.8367824 27.1595065,27.0359906 28.728424,25.4546518 C30.3085321,23.8800612 31.1008243,21.9838042 31.1008243,19.8086198 M41,19.7681303 C41,24.6651071 39.2721764,28.8377722 35.8075768,32.3198668 C32.3474535,35.7974627 28.1890387,37.5452582 23.3166658,37.5452582 L9.77160325,37.5452582 L9.77160325,52 L0,52 L0,2 L23.3166658,2 C28.1890387,2 32.3474535,3.73204967 35.8075768,7.20514666 C39.2721764,10.6894907 41,14.8824006 41,19.7681303" id="Fill-1"></path>
            <path d="M77.5945908,35.7131391 L71.9697832,23.706683 L66.4389834,35.7131391 L77.5945908,35.7131391 Z M96,52 L85.0480765,52 L82.1271159,45.6894085 L61.8258802,45.6894085 L58.9340173,52 L48,52 L71.9697832,0 L96,52 Z" id="Fill-4"></path>
            <polygon id="Fill-6" points="145 2 122.498883 54 100 2 110.822785 2 122.498883 29.0357345 134.190618 2"></polygon>
            <polygon id="Fill-8" points="264 54 231.882221 23.9428777 231.882221 52.4290312 222 52.4290312 222 1 254.093023 31.2995003 254.093023 2.54628218 264 2.54628218"></polygon>
            <polygon id="Fill-10" points="320 52 286 52 286 2 320 2 320 11.897872 295.804268 11.897872 295.804268 21.7777478 318.007986 21.7777478 318.007986 31.6846178 295.804268 31.6846178 295.804268 42.1088766 320 42.1088766"></polygon>
            <path d="M179.509076,39.75625 C172.686103,39.75625 167.161015,34.2270976 167.161015,27.4047089 C167.161015,20.584589 172.686103,15.0554366 179.509076,15.0554366 C186.327511,15.0554366 191.857137,20.584589 191.857137,27.4047089 C191.857137,34.2270976 186.327511,39.75625 179.509076,39.75625 M179.506807,1 C164.864757,1 153,12.8637414 153,27.5 C153,42.1385274 164.864757,54 179.506807,54 C194.132974,54 206,42.1385274 206,27.5 C206,12.8637414 194.132974,1 179.506807,1" id="Fill-12"></path>
            <path d="M328.158447,47.9412382 L327.470094,47.9412382 L327.470094,48.8751312 L328.175236,48.8751312 C328.532004,48.8751312 328.720881,48.6841553 328.720881,48.4134313 C328.720881,48.0965373 328.504722,47.9412382 328.158447,47.9412382 M328.743966,49.366212 L329.52256,50.5099685 L328.704092,50.5099685 L328.026233,49.4795383 L327.470094,49.4795383 L327.470094,50.5099685 L326.764953,50.5099685 L326.764953,47.320042 L328.183631,47.320042 C328.943337,47.320042 329.432319,47.7082896 329.432319,48.3693599 C329.432319,48.8940189 329.1532,49.2151102 328.743966,49.366212 M328.009444,46.3315845 C326.494229,46.3315845 325.348374,47.5362015 325.348374,49.0094439 C325.348374,50.4826863 326.483736,51.6684155 327.992655,51.6684155 C329.50787,51.6684155 330.649528,50.4679958 330.649528,48.9926548 C330.649528,47.5194124 329.514166,46.3315845 328.009444,46.3315845 M327.992655,52 C326.309549,52 325,50.6484785 325,49.0094439 C325,47.3683106 326.326338,46 328.009444,46 C329.688353,46 331,47.3515215 331,48.9926548 C331,50.6316894 329.675761,52 327.992655,52" id="Fill-14"></path>
        </g>
    </g>
</svg>