<?xml version="1.0" encoding="UTF-8"?>
<svg width="167px" height="27px" viewBox="0 0 167 27" version="1.1" xmlns="http://www.w3.org/2000/svg" xmlns:xlink="http://www.w3.org/1999/xlink">
    <title>Word-Mark-W</title>
    <g id="🖥-Desktop" stroke="none" stroke-width="1" fill="none" fill-rule="evenodd">
        <g id="001-Desktop-Home" transform="translate(-299.000000, -131.000000)" fill="#FFFFFF">
            <g id="Global-Navigation" transform="translate(211.000000, 99.000000)">
                <g id="Group" transform="translate(88.000000, 30.950774)">
                    <g id="Word-Mark-K" transform="translate(0.000000, 0.994413)">
                        <path d="M15.6913524,9.90430988 C15.6913524,8.80097175 15.2916159,7.86858917 14.4944013,7.06667267 C13.7028326,6.27487853 12.7576928,5.88572971 11.6578528,5.88572971 L4.93008382,5.88572971 L4.93008382,13.9183912 L11.6578528,13.9183912 C12.7576928,13.9183912 13.7028326,13.5179953 14.4944013,12.7273259 C15.2916159,11.9400306 15.6913524,10.9919021 15.6913524,9.90430988 M20.6858006,9.88406514 C20.6858006,12.3325535 19.8140588,14.4188861 18.0660584,16.1599334 C16.3203164,17.8987313 14.2222642,18.7726291 11.7639975,18.7726291 L4.93008382,18.7726291 L4.93008382,26 L0,26 L0,1 L11.7639975,1 C14.2222642,1 16.3203164,1.86602483 18.0660584,3.60257333 C19.8140588,5.34474537 20.6858006,7.44120029 20.6858006,9.88406514" id="Fill-1"></path>
                        <path d="M39.1489325,17.8565695 L36.3110386,11.8533415 L33.5205747,17.8565695 L39.1489325,17.8565695 Z M48.4350453,26 L42.9094525,26 L41.4357352,22.8447042 L31.1931178,22.8447042 L29.7340812,26 L24.2175227,26 L36.3110386,0 L48.4350453,26 Z" id="Fill-4"></path>
                        <polygon id="Fill-6" points="73.1570997 1 61.8045724 27 50.4531722 1 55.9136105 1 61.8045724 14.5178673 67.7034236 1"></polygon>
                        <polygon id="Fill-8" points="133.196375 27 116.991936 11.9714389 116.991936 26.2145156 112.006042 26.2145156 112.006042 0.5 128.197991 15.6497502 128.197991 1.27314109 133.196375 1.27314109"></polygon>
                        <polygon id="Fill-10" points="161.450151 26 144.296073 26 144.296073 1 161.450151 1 161.450151 5.94893598 149.242637 5.94893598 149.242637 10.8888739 160.445117 10.8888739 160.445117 15.8423089 149.242637 15.8423089 149.242637 21.0544383 161.450151 21.0544383"></polygon>
                        <path d="M90.5680233,19.878125 C87.1256171,19.878125 84.338035,17.1135488 84.338035,13.7023545 C84.338035,10.2922945 87.1256171,7.52771832 90.5680233,7.52771832 C94.0081399,7.52771832 96.7980116,10.2922945 96.7980116,13.7023545 C96.7980116,17.1135488 94.0081399,19.878125 90.5680233,19.878125 M90.5668785,0.5 C83.1794999,0.5 77.1933535,6.43187072 77.1933535,13.75 C77.1933535,21.0692637 83.1794999,27 90.5668785,27 C97.9462435,27 103.933535,21.0692637 103.933535,13.75 C103.933535,6.43187072 97.9462435,0.5 90.5668785,0.5" id="Fill-12"></path>
                        <path d="M165.566346,23.9706191 L165.219051,23.9706191 L165.219051,24.4375656 L165.574817,24.4375656 C165.754818,24.4375656 165.850112,24.3420776 165.850112,24.2067156 C165.850112,24.0482686 165.741053,23.9706191 165.566346,23.9706191 M165.861759,24.683106 L166.254585,25.2549843 L165.841642,25.2549843 L165.49964,24.7397692 L165.219051,24.7397692 L165.219051,25.2549843 L164.863284,25.2549843 L164.863284,23.660021 L165.579052,23.660021 C165.962348,23.660021 166.209055,23.8541448 166.209055,24.18468 C166.209055,24.4470094 166.068231,24.6075551 165.861759,24.683106 M165.49117,23.1657922 C164.726695,23.1657922 164.148575,23.7681007 164.148575,24.5047219 C164.148575,25.2413431 164.721401,25.8342078 165.482699,25.8342078 C166.247173,25.8342078 166.823176,25.2339979 166.823176,24.4963274 C166.823176,23.7597062 166.25035,23.1657922 165.49117,23.1657922 M165.482699,26 C164.633519,26 163.97281,25.3242392 163.97281,24.5047219 C163.97281,23.6841553 164.641989,23 165.49117,23 C166.338232,23 167,23.6757608 167,24.4963274 C167,25.3158447 166.331879,26 165.482699,26" id="Fill-14"></path>
                    </g>
                </g>
            </g>
        </g>
    </g>
</svg>