<?xml version="1.0" encoding="UTF-8"?>
<svg width="31px" height="24px" viewBox="0 0 31 24" version="1.1" xmlns="http://www.w3.org/2000/svg" xmlns:xlink="http://www.w3.org/1999/xlink">
    <title>Icon-Twitter</title>
    <g id="🖥-Desktop" stroke="none" stroke-width="1" fill="none" fill-rule="evenodd">
        <g id="001-Desktop-Home" transform="translate(-1465.000000, -8865.000000)" fill="#000000">
            <g id="Footer" transform="translate(0.000000, 8656.000000)">
                <g id="Social" transform="translate(1423.000000, 209.000000)">
                    <g id="Icon-Twitter" transform="translate(42.333333, 0.000000)">
                        <path d="M30,2.84076775 C28.8958477,3.32274127 27.7095891,3.6480238 26.4643955,3.79479763 C27.7357825,3.04506105 28.7114865,1.85748228 29.1708783,0.442800769 C27.9815975,1.1370013 26.6648757,1.6412884 25.2630253,1.91301833 C24.1397317,0.735356708 22.5399197,0 20.7703545,0 C17.3712578,0 14.6154104,2.71234065 14.6154104,6.05838722 C14.6154104,6.53341873 14.6693084,6.99555794 14.7745857,7.43885457 C9.65982168,7.18646309 5.12332723,4.77461209 2.0884195,1.10873742 C1.55850698,2.00376025 1.25526806,3.04456519 1.25526806,4.15479019 C1.25526806,6.25673023 2.3412865,8.11074151 3.99298151,9.19766121 C2.98453582,9.16592632 2.03502527,8.8941964 1.20539987,8.43999091 C1.20439243,8.46527964 1.20439243,8.49056838 1.20439243,8.51585711 C1.20439243,11.4518295 3.32656111,13.9008698 6.14184731,14.457222 C5.6255352,14.5955662 5.08202226,14.669449 4.52037544,14.669449 C4.12394849,14.669449 3.73860335,14.6317638 3.36232517,14.561352 C4.14560841,16.9677486 6.41939654,18.7196132 9.11177527,18.7682073 C7.00572561,20.3936282 4.35213325,21.3625338 1.46783753,21.3625338 C0.971674194,21.3625338 0.481555485,21.3337741 0,21.2772463 C2.72360932,22.9963844 5.95798982,24 9.43516295,24 C20.7552429,24 26.9464547,14.7676288 26.9464547,6.76052148 C26.9464547,6.4987087 26.9409137,6.23739179 26.9288245,5.97657073 C28.131202,5.12319993 29.1744044,4.05611454 30,2.84076775" id="Fill-1"></path>
                    </g>
                </g>
            </g>
        </g>
    </g>
</svg>