<?xml version="1.0" encoding="UTF-8"?>
<svg width="59px" height="48px" viewBox="0 0 59 48" version="1.1" xmlns="http://www.w3.org/2000/svg" xmlns:xlink="http://www.w3.org/1999/xlink">
    <title>Icon-Twitter</title>
    <g id="🖥-Desktop" stroke="none" stroke-width="1" fill="none" fill-rule="evenodd">
        <g id="001-Desktop-Home" transform="translate(-1411.000000, -8294.000000)" fill="#000000">
            <g id="Afterhours" transform="translate(0.000000, 7361.000000)">
                <g id="Twitter-Post" transform="translate(960.000000, 841.000000)">
                    <g id="Icon-Twitter" transform="translate(451.000000, 92.000000)">
                        <path d="M58.341551,5.61208163 C56.1942857,6.5642449 53.8873469,7.20685714 51.4657959,7.49681633 C53.9382857,6.01567347 55.8357551,3.66955102 56.7291429,0.87477551 C54.4163265,2.24620408 51.8556735,3.24244898 49.1294694,3.77926531 C46.9449796,1.45273469 43.8337959,-1.88293825e-13 40.3924898,-1.88293825e-13 C33.7822041,-1.88293825e-13 28.4228571,5.35836735 28.4228571,11.9686531 C28.4228571,12.907102 28.5276735,13.8200816 28.7324082,14.6958367 C18.7856327,14.1972245 9.96342857,9.4324898 4.06138776,2.19036735 C3.03085714,3.95853061 2.44114286,6.01469388 2.44114286,8.208 C2.44114286,12.3604898 4.55314286,16.0231837 7.76522449,18.170449 C5.80408163,18.1077551 3.95755102,17.5709388 2.34416327,16.6736327 C2.34220408,16.7235918 2.34220408,16.773551 2.34220408,16.8235102 C2.34220408,22.6236735 6.46922449,27.4618776 11.9441633,28.5609796 C10.9400816,28.8342857 9.88310204,28.9802449 8.79085714,28.9802449 C8.01991837,28.9802449 7.27053061,28.9057959 6.53877551,28.7666939 C8.06204082,33.5206531 12.4839184,36.981551 17.7198367,37.077551 C13.6241633,40.2886531 8.46367347,42.2027755 2.85453061,42.2027755 C1.88963265,42.2027755 0.936489796,42.1459592 -1.42108547e-14,42.0342857 C5.29665306,45.4305306 11.5866122,47.4132245 18.3487347,47.4132245 C40.363102,47.4132245 52.4032653,29.1742041 52.4032653,13.3557551 C52.4032653,12.8385306 52.3924898,12.3222857 52.3689796,11.8070204 C54.7072653,10.1211429 56.736,8.01306122 58.341551,5.61208163" id="Fill-1"></path>
                    </g>
                </g>
            </g>
        </g>
    </g>
</svg>